<?xml version="1.0" standalone="no"?>
<!DOCTYPE svg PUBLIC "-//W3C//DTD SVG 20010904//EN"
 "http://www.w3.org/TR/2001/REC-SVG-20010904/DTD/svg10.dtd">
<svg version="1.0" xmlns="http://www.w3.org/2000/svg"
 width="1942.000000pt" height="1942.000000pt" viewBox="0 0 1942.000000 1942.000000"
 preserveAspectRatio="xMidYMid meet">
<metadata>
Created by potrace 1.11, written by Peter Selinger 2001-2013
</metadata>
<g transform="translate(0.000000,1942.000000) scale(0.100000,-0.100000)"
fill="#000000" stroke="none">
<path d="M6912 19391 c-15 -22 -14 -32 17 -150 66 -250 141 -536 145 -556 2
-11 25 -105 51 -210 47 -195 122 -520 155 -680 11 -49 33 -155 50 -235 17 -80
33 -158 35 -175 5 -28 18 -97 30 -155 3 -14 14 -72 25 -130 21 -112 23 -122
39 -215 11 -61 17 -90 26 -135 2 -14 7 -38 9 -55 3 -16 12 -73 21 -125 9 -52
18 -106 20 -120 2 -14 13 -83 24 -155 11 -71 23 -148 26 -170 6 -42 15 -106
21 -140 4 -28 11 -78 24 -170 6 -44 12 -89 14 -100 2 -11 7 -53 11 -93 8 -83
25 -109 72 -115 49 -7 67 19 59 85 -12 113 -59 449 -81 588 -3 14 -7 43 -10
65 -4 22 -8 51 -10 65 -3 14 -7 43 -11 65 -3 22 -21 132 -40 245 -20 113 -37
219 -40 235 -3 17 -9 53 -15 80 -15 80 -17 91 -23 129 -3 19 -10 55 -15 78 -5
24 -13 63 -16 88 -4 24 -8 47 -10 50 -2 3 -6 25 -10 49 -3 24 -20 109 -36 190
-17 80 -32 155 -34 166 -3 11 -9 40 -14 65 -61 274 -85 381 -91 415 -26 128
-185 770 -245 990 -20 72 -37 137 -39 145 -17 71 -29 101 -46 110 -30 16 -71
8 -88 -19z"/>
<path d="M13440 18423 c-18 -7 -33 -24 -109 -118 -31 -38 -58 -72 -61 -75 -29
-27 -220 -304 -307 -445 -100 -163 -228 -413 -307 -599 -171 -400 -305 -909
-341 -1296 -3 -30 -7 -65 -10 -78 -2 -12 -7 -79 -10 -150 -16 -303 -15 -307
42 -318 27 -5 39 -2 54 13 17 16 20 38 24 148 8 237 23 384 61 610 19 114 16
99 44 230 150 690 472 1347 938 1915 68 83 76 113 39 148 -24 23 -31 25 -57
15z"/>
<path d="M3308 16008 c-10 -12 -18 -30 -18 -39 0 -19 100 -219 170 -339 112
-194 198 -327 329 -505 86 -118 74 -101 197 -250 274 -331 571 -612 919 -870
226 -167 248 -178 279 -133 33 47 22 74 -51 126 -361 255 -649 508 -920 808
-285 316 -561 717 -752 1094 -30 58 -58 111 -64 118 -16 20 -70 14 -89 -10z"/>
<path d="M18000 14691 c-298 -119 -547 -265 -1095 -640 -60 -41 -168 -113
-240 -161 -127 -84 -212 -139 -585 -382 -102 -66 -250 -163 -330 -215 -158
-103 -388 -253 -570 -371 -208 -135 -203 -131 -197 -174 4 -25 37 -58 58 -58
10 0 65 30 121 67 57 36 175 113 263 171 88 57 219 142 290 189 72 46 228 148
347 226 120 78 284 185 365 237 186 121 278 182 411 274 354 243 604 408 742
489 107 63 403 206 490 238 80 29 96 39 104 62 6 17 6 37 0 55 -14 41 -60 39
-174 -7z"/>
<path d="M8747 14694 c-1 -1 -58 -5 -127 -8 -464 -20 -913 -127 -1278 -302
-735 -353 -1299 -1057 -1591 -1984 -50 -160 -121 -443 -136 -545 -5 -35 -15
-98 -30 -185 -15 -92 -21 -140 -31 -240 -3 -36 -7 -76 -9 -89 -25 -158 -25
-966 0 -1123 2 -13 6 -58 10 -101 4 -43 8 -88 10 -100 2 -12 6 -76 10 -142 3
-66 8 -138 10 -160 10 -105 18 -181 20 -195 1 -8 6 -40 10 -70 4 -30 9 -62 10
-70 1 -8 6 -35 10 -60 45 -290 146 -789 199 -980 5 -15 56 -213 126 -485 22
-82 48 -184 59 -225 11 -41 45 -174 76 -295 31 -121 67 -260 80 -310 13 -49
44 -171 70 -270 86 -331 96 -370 117 -440 50 -167 170 -442 270 -615 207 -361
548 -755 858 -990 47 -36 87 -68 90 -71 3 -4 54 -39 114 -78 106 -70 110 -74
163 -163 114 -193 251 -335 426 -440 l82 -49 12 -87 c14 -93 45 -196 76 -252
88 -158 263 -274 527 -351 l95 -28 -100 -2 c-185 -3 -307 -17 -469 -53 -66
-15 -189 -70 -216 -96 -67 -65 -57 -179 23 -263 l33 -36 -40 -6 c-198 -32
-318 -147 -317 -306 0 -69 4 -85 37 -154 49 -102 172 -201 332 -266 75 -30 81
-35 60 -43 -300 -123 -497 -305 -504 -469 -6 -118 90 -229 231 -265 67 -18
249 -38 365 -41 l34 -1 -24 -17 c-91 -62 -209 -204 -238 -287 -44 -125 9 -265
128 -338 20 -12 109 -49 130 -54 3 -1 19 -5 37 -9 27 -6 32 -12 38 -50 7 -49
45 -110 92 -149 78 -65 291 -144 463 -172 23 -4 49 -8 120 -20 159 -28 322
-51 410 -59 36 -3 79 -8 96 -10 129 -17 547 -24 734 -11 148 10 272 22 320 31
8 1 40 6 71 9 31 4 66 8 77 11 11 2 35 6 53 9 19 3 44 8 55 10 12 2 38 7 59
10 83 13 374 83 466 112 58 18 78 49 59 93 -14 35 -52 47 -96 31 -34 -13 -293
-78 -344 -86 -19 -3 -38 -8 -41 -9 -5 -4 -199 -38 -284 -50 -22 -4 -51 -8 -65
-10 -14 -2 -52 -7 -85 -10 -33 -4 -76 -8 -95 -11 -204 -23 -731 -23 -905 0
-11 2 -51 6 -90 10 -38 4 -95 12 -125 17 -30 5 -72 11 -92 13 -20 2 -45 7 -55
10 -10 2 -34 7 -53 10 -19 3 -44 8 -55 10 -11 2 -78 16 -150 31 -163 33 -265
67 -321 106 -72 49 -86 92 -26 79 20 -5 69 -11 107 -15 39 -4 84 -9 100 -10
241 -26 1024 -26 1185 -1 14 2 63 7 110 10 47 4 103 8 125 10 22 2 74 7 115
11 41 3 89 8 105 10 17 2 62 6 100 10 39 3 81 7 95 10 14 2 49 7 79 10 30 4
63 9 75 11 12 2 39 7 60 9 22 3 60 10 85 16 25 6 56 13 67 15 29 5 154 43 179
53 221 93 363 198 447 332 44 69 58 109 51 151 -14 94 -71 117 -363 144 -126
11 -404 6 -600 -11 -144 -13 -338 -34 -410 -45 -36 -5 -86 -12 -112 -15 -26
-3 -62 -7 -80 -10 -98 -13 -195 -28 -213 -31 -10 -2 -37 -6 -60 -9 -62 -9
-149 -24 -285 -52 -69 -13 -136 -27 -150 -29 -240 -47 -662 -181 -795 -252
-27 -15 -81 -58 -120 -96 l-69 -69 -66 22 c-180 63 -211 177 -90 330 52 66
106 116 178 163 112 75 79 71 567 74 242 1 483 5 535 8 52 3 140 8 195 11 161
9 282 17 430 30 28 2 79 7 115 10 69 6 142 13 200 20 19 2 60 7 90 10 30 4 66
8 80 10 14 2 45 7 69 10 36 5 288 55 355 70 151 34 265 88 341 160 108 102 94
181 -40 237 -49 21 -138 46 -185 52 -19 3 -53 7 -75 11 -135 19 -225 23 -430
20 -126 -2 -246 -6 -265 -9 -19 -3 -53 -8 -75 -10 -123 -14 -332 -51 -415 -72
-30 -8 -68 -17 -85 -20 -16 -3 -55 -12 -85 -20 -30 -8 -63 -17 -73 -19 -49
-11 -325 -87 -347 -96 -14 -5 -34 -11 -45 -13 -57 -12 -417 -128 -480 -155
-211 -90 -281 -115 -323 -114 -80 1 -343 13 -432 19 -141 9 -181 46 -188 172
l-4 79 58 58 c113 110 228 175 389 221 100 29 160 28 305 -4 170 -38 214 -46
335 -58 39 -3 73 -8 76 -10 8 -4 252 -16 344 -17 80 0 303 11 355 18 19 3 58
7 85 10 92 10 227 31 295 46 57 13 79 18 110 24 29 5 300 74 415 105 44 12 87
23 95 25 266 62 439 128 548 210 86 65 93 109 24 155 -164 109 -373 133 -812
95 -173 -15 -261 -25 -280 -30 -8 -2 -35 -7 -60 -10 -25 -3 -52 -8 -60 -10 -8
-2 -29 -7 -47 -10 -125 -21 -337 -84 -709 -213 -222 -77 -317 -104 -414 -117
-25 -3 -56 -8 -70 -10 -14 -2 -59 -7 -100 -10 -41 -3 -91 -8 -110 -10 -153
-18 -171 -16 -325 33 -146 47 -281 120 -353 192 -31 31 -33 37 -27 79 3 25 8
53 10 61 5 17 11 54 21 116 6 42 6 42 75 64 59 19 83 22 171 17 57 -3 114 -8
128 -11 13 -3 42 -8 65 -11 22 -3 51 -8 65 -10 28 -6 78 -11 165 -20 33 -3 83
-8 110 -11 101 -10 313 -23 465 -29 134 -5 713 -5 845 0 44 1 193 6 330 10
138 3 279 8 315 10 200 12 287 17 300 20 8 2 44 6 80 10 95 9 273 36 282 41 4
3 18 7 30 9 43 9 143 66 166 95 14 17 25 50 29 80 22 190 -192 302 -682 355
-27 3 -67 7 -87 10 -85 11 -395 21 -743 25 -49 0 -49 0 -26 16 44 31 91 89
122 150 26 52 34 60 53 57 37 -7 171 34 265 81 47 24 109 49 136 55 218 51
557 205 705 321 19 15 80 53 135 85 438 252 718 582 864 1020 34 102 102 355
117 433 3 13 20 83 39 156 126 489 329 918 825 1751 383 642 563 994 704 1375
37 100 102 304 111 349 2 9 12 52 23 96 31 122 74 376 87 520 4 33 8 76 10 95
4 39 16 211 21 305 4 79 3 668 -1 770 -3 85 -15 270 -19 320 -2 17 -6 66 -10
110 -4 44 -11 103 -16 130 -5 28 -12 73 -15 100 -3 28 -13 84 -22 125 -8 41
-17 86 -19 100 -20 116 -101 382 -165 542 -73 183 -218 454 -311 578 -112 151
-192 245 -308 365 -558 579 -1317 980 -2340 1235 -41 11 -86 21 -100 23 -14 3
-43 10 -65 15 -22 6 -123 27 -225 46 -102 20 -194 37 -205 40 -11 2 -45 7 -75
11 -30 4 -64 9 -75 11 -10 2 -37 6 -60 9 -22 3 -51 8 -65 10 -14 2 -50 7 -80
10 -30 3 -66 8 -80 10 -39 6 -113 15 -177 20 -32 3 -74 7 -93 10 -34 4 -86 9
-222 20 -35 3 -88 7 -118 10 -30 2 -93 7 -140 10 -47 2 -132 8 -190 11 -98 6
-538 13 -543 8z m598 -138 c39 -3 102 -8 140 -12 39 -3 89 -7 113 -9 23 -2 67
-6 97 -9 30 -3 81 -9 113 -12 31 -3 68 -7 82 -9 14 -2 84 -11 155 -20 187 -22
212 -26 295 -41 44 -8 55 -11 25 -8 -223 22 -558 22 -725 -1 -14 -1 -50 -6
-80 -10 -30 -3 -95 -15 -145 -26 -49 -11 -101 -22 -114 -25 -119 -24 -415
-148 -570 -239 -46 -27 -103 -48 -199 -72 -73 -18 -166 -44 -205 -57 -40 -13
-99 -32 -132 -41 -158 -45 -266 -80 -330 -107 -245 -104 -455 -245 -671 -450
-65 -62 -148 -138 -184 -168 -130 -109 -205 -181 -291 -281 -87 -100 -422
-549 -521 -699 -93 -141 -216 -380 -287 -560 -23 -58 -46 -114 -51 -125 -55
-125 -168 -484 -185 -586 -15 -90 -23 -104 -20 -34 12 218 17 312 21 329 2 11
6 51 9 90 3 39 8 82 10 96 2 14 7 49 10 79 4 30 8 61 10 70 1 9 8 52 15 96 74
504 278 1071 533 1480 62 99 182 272 197 285 3 3 13 14 21 26 68 99 305 339
449 454 246 196 514 342 810 441 158 52 350 99 470 115 25 3 52 7 60 9 8 2 42
7 75 11 33 3 69 8 79 10 11 2 65 6 120 10 56 3 103 8 105 10 5 5 614 -3 696
-10z m1500 -196 c3 -6 -1 -7 -9 -4 -18 7 -21 14 -7 14 6 0 13 -4 16 -10z m42
-6 c-3 -3 -12 -4 -19 -1 -8 3 -5 6 6 6 11 1 17 -2 13 -5z m43 -10 c0 -2 -7 -4
-15 -4 -8 0 -15 4 -15 10 0 5 7 7 15 4 8 -4 15 -8 15 -10z m145 -27 c17 -3 71
-15 120 -27 50 -12 97 -24 105 -26 647 -155 1206 -394 1668 -711 125 -86 137
-95 291 -224 107 -90 321 -300 371 -365 8 -11 33 -42 56 -69 191 -234 371
-567 481 -890 31 -91 94 -326 107 -400 19 -104 26 -144 31 -177 12 -90 14
-106 20 -153 3 -27 8 -64 10 -80 2 -17 7 -62 10 -100 3 -39 8 -104 11 -145 4
-41 8 -106 10 -145 4 -93 4 -651 0 -695 -2 -19 -7 -84 -11 -145 -3 -60 -8
-121 -10 -135 -2 -14 -6 -56 -10 -95 -3 -38 -8 -81 -10 -95 -2 -14 -6 -47 -10
-75 -13 -111 -17 -140 -21 -146 -1 -3 -6 -28 -9 -55 -5 -39 -33 -172 -60 -284
-68 -287 -273 -773 -483 -1150 -32 -58 -74 -132 -92 -165 -18 -33 -53 -94 -78
-135 -24 -41 -52 -88 -62 -105 -9 -16 -48 -82 -85 -145 -134 -226 -170 -288
-287 -495 -278 -494 -438 -867 -523 -1225 -3 -14 -27 -103 -84 -320 -98 -374
-203 -612 -357 -815 -51 -67 -144 -171 -144 -161 0 3 14 29 31 58 51 87 109
215 163 363 25 68 91 293 100 338 2 12 9 42 15 67 5 25 12 56 15 70 2 14 14
69 25 124 12 54 23 108 25 120 35 180 93 407 147 574 90 277 182 477 380 822
61 107 123 215 136 240 14 25 33 59 43 75 10 17 53 98 95 180 43 83 91 175
108 205 270 503 500 1008 611 1341 62 187 160 551 182 673 3 17 11 63 19 101
8 39 16 86 19 105 3 19 8 44 10 55 2 12 8 48 12 80 4 33 9 62 9 65 1 3 5 37 9
75 4 39 10 81 12 95 26 154 25 896 0 939 -2 3 -7 33 -11 66 -3 32 -8 62 -10
65 -2 3 -6 23 -9 45 -4 22 -11 58 -17 80 -6 22 -13 49 -15 59 -8 45 -80 248
-121 345 -241 567 -720 1183 -1268 1632 -440 360 -938 639 -1441 807 -180 60
-315 99 -351 101 -7 1 -13 5 -13 10 0 5 24 3 53 -4 28 -8 66 -16 82 -18z
m-905 -1 c134 -7 211 -13 260 -20 19 -3 60 -8 90 -12 30 -3 102 -15 160 -26
58 -11 116 -22 130 -25 68 -12 274 -68 388 -105 607 -196 1209 -552 1706
-1008 386 -354 695 -754 896 -1159 172 -345 256 -645 286 -1015 5 -65 5 -490
0 -536 -2 -19 -7 -73 -11 -120 -7 -89 -12 -132 -20 -190 -2 -19 -7 -55 -10
-80 -3 -25 -13 -83 -21 -130 -9 -47 -17 -96 -19 -110 -10 -64 -50 -241 -81
-360 -182 -694 -480 -1371 -1005 -2285 -54 -94 -128 -227 -164 -295 -36 -69
-64 -116 -61 -105 3 11 8 43 12 70 3 28 8 58 9 67 2 9 7 48 10 85 10 93 6 81
75 243 150 352 305 788 409 1150 46 161 78 283 86 320 9 42 61 241 95 365 46
164 83 330 104 470 24 160 28 204 41 445 3 58 7 114 9 125 2 11 7 56 11 100 3
44 8 96 10 115 26 262 27 938 1 1076 -2 10 -7 49 -10 86 -4 37 -9 77 -11 90
-28 167 -39 230 -61 323 -14 61 -27 120 -30 131 -9 46 -86 269 -130 377 -154
381 -420 746 -713 977 -213 169 -508 322 -831 433 -81 28 -272 85 -306 91 -11
2 -49 11 -85 20 -157 38 -386 81 -534 101 -90 12 -109 16 -206 46 -52 16 -104
31 -115 34 -152 32 -221 45 -261 50 -26 4 -55 8 -63 10 -8 2 -37 7 -65 10 -27
3 -66 8 -85 10 -286 37 -575 49 -775 32 -44 -4 -105 -10 -135 -12 l-55 -5 70
26 c82 29 233 70 295 79 25 4 47 8 50 10 3 2 37 6 75 10 39 4 79 9 90 11 11 2
83 7 160 10 77 4 141 7 142 8 1 1 19 1 40 0 21 -1 90 -5 153 -8z m1475 -616
c310 -99 645 -270 865 -444 309 -243 538 -552 697 -941 85 -207 157 -466 187
-669 4 -21 8 -41 10 -45 2 -3 7 -37 11 -76 3 -38 8 -79 10 -90 2 -11 7 -51 10
-90 3 -38 8 -88 10 -110 2 -22 6 -114 9 -205 4 -155 0 -165 -19 -45 -14 91
-87 371 -130 499 -25 76 -77 210 -115 300 -39 89 -72 171 -74 182 -27 130 -91
308 -161 449 -139 280 -371 524 -662 695 -82 49 -123 79 -198 145 -68 61 -265
216 -340 267 -106 73 -243 152 -387 222 -65 32 -118 59 -118 60 0 4 317 -79
395 -104z m1234 -5952 c-12 -29 -25 -64 -29 -78 -9 -30 -56 -152 -76 -197 -8
-17 -14 -36 -14 -42 0 -6 -3 -11 -7 -11 -5 0 -9 36 -11 79 l-3 80 78 110 c43
61 79 111 80 111 2 0 -7 -24 -18 -52z m-578 -2135 c-5 -10 -11 -31 -14 -48 -3
-16 -15 -77 -27 -135 -12 -58 -23 -109 -24 -115 -19 -88 -30 -139 -42 -181 -8
-28 -16 -60 -18 -70 -8 -39 -59 -192 -92 -278 -107 -275 -242 -484 -425 -663
-112 -110 -125 -118 -232 -165 -84 -36 -349 -129 -354 -124 -1 1 14 29 34 61
19 33 53 94 75 136 38 73 41 76 115 114 297 151 466 393 567 814 24 99 34 118
88 174 75 77 249 317 318 440 17 31 34 57 36 57 3 0 0 -8 -5 -17z m-607 -795
c-46 -129 -119 -266 -184 -341 -66 -77 -194 -187 -205 -176 -2 2 19 63 46 134
27 72 58 155 69 185 11 31 31 64 46 75 14 11 74 59 133 107 58 47 109 87 113
87 4 1 -4 -32 -18 -71z m-485 -418 c-28 -74 -56 -147 -62 -162 -11 -28 -53
-47 -177 -79 -72 -18 -101 -24 -160 -34 -25 -4 -53 -9 -62 -10 -9 -2 -48 -6
-85 -10 -37 -3 -86 -8 -107 -11 -46 -6 -52 1 -48 58 l4 44 121 48 c138 54 447
205 552 269 39 23 71 38 73 32 1 -6 -20 -72 -49 -145z m-3078 -89 c57 -26 127
-56 154 -66 28 -10 55 -22 61 -26 13 -10 18 -159 6 -159 -15 0 -117 72 -179
127 -50 43 -162 173 -150 173 2 0 51 -22 108 -49z m2247 -194 c2 -22 -2 -34
-10 -34 -7 0 -74 -3 -148 -7 l-135 -6 145 39 c80 21 145 39 145 40 1 0 2 -14
3 -32z m-1648 4 c38 -10 93 -17 206 -27 58 -6 77 -12 100 -33 61 -55 129 -91
228 -118 46 -13 103 -17 234 -17 l172 -1 0 -79 0 -78 -42 6 c-24 3 -63 9 -88
12 -25 3 -70 9 -100 14 -30 5 -77 12 -105 16 -27 3 -57 8 -66 9 -9 2 -40 6
-70 10 -69 9 -218 82 -364 180 -170 115 -181 126 -105 106z m-140 -80 c47 -36
107 -79 133 -95 26 -17 45 -31 43 -34 -6 -5 -161 38 -225 63 l-55 21 -1 61 c0
37 3 59 9 56 5 -4 48 -36 96 -72z m2434 -48 c-31 -55 -95 -148 -122 -179 -22
-26 -36 -31 -132 -44 -179 -26 -286 -31 -284 -15 1 6 5 51 9 100 3 50 9 93 13
96 4 4 45 10 92 14 47 3 94 8 105 10 11 3 40 7 65 10 64 7 95 13 180 34 107
27 106 27 74 -26z m-657 -151 c-4 -59 -6 -108 -7 -110 0 -3 -343 7 -405 12
-27 3 -74 6 -102 7 -59 3 -53 -11 -56 120 l-2 67 79 1 c44 1 81 3 82 4 1 1 96
3 209 4 l208 2 -6 -107z m-1797 -7 c39 -14 166 -46 295 -74 28 -6 105 -20 172
-31 82 -14 158 -34 235 -64 101 -39 191 -68 343 -109 l50 -14 -2 -129 c-1 -71
-2 -141 -3 -156 0 -20 -4 -26 -17 -24 -10 2 -63 7 -118 11 -54 3 -102 8 -105
10 -3 2 -23 6 -45 9 -88 14 -114 19 -205 42 -413 103 -595 230 -654 459 -25
95 -23 97 54 70z m1607 -231 c-3 -3 -12 -4 -19 -1 -8 3 -5 6 6 6 11 1 17 -2
13 -5z m-242 -108 c28 -4 67 -9 88 -12 49 -7 145 -13 220 -13 31 -1 57 -5 57
-10 0 -4 -16 -33 -36 -63 -70 -106 -181 -154 -381 -163 l-94 -5 2 138 c1 75 4
140 5 143 2 4 23 3 46 -1 24 -5 66 -11 93 -14z m-348 -435 l63 -1 -6 -32 c-9
-46 -47 -129 -73 -155 -50 -52 -116 -70 -276 -78 -66 -3 -176 -8 -245 -11
-239 -13 -396 -6 -480 21 -10 3 -29 8 -41 10 -13 3 -46 16 -74 30 -124 60 -76
145 95 169 181 26 256 36 325 41 43 3 80 7 82 9 2 2 475 0 630 -3z m1133 -15
c252 -11 391 -22 490 -40 8 -2 38 -6 65 -11 98 -15 239 -54 264 -72 39 -30 80
-85 86 -118 13 -64 -70 -98 -270 -110 -55 -3 -116 -8 -135 -10 -258 -33 -1474
-60 -1815 -41 -33 2 -87 4 -119 5 -88 2 -60 14 41 17 326 13 446 104 455 345
l1 45 391 -2 c215 -1 461 -5 546 -8z m-1545 -386 c3 -6 -1 -7 -9 -4 -18 7 -21
14 -7 14 6 0 13 -4 16 -10z m40 0 c3 -5 -1 -10 -10 -10 -9 0 -13 5 -10 10 3 6
8 10 10 10 2 0 7 -4 10 -10z m2070 -329 c52 -10 105 -27 105 -35 0 -13 -185
-100 -239 -111 -37 -8 -249 -61 -446 -111 -194 -50 -364 -90 -425 -100 -14 -2
-34 -6 -46 -9 -12 -3 -39 -7 -60 -10 -21 -3 -61 -10 -89 -15 -124 -22 -282
-34 -460 -34 -132 0 -316 9 -360 18 -11 3 -38 5 -60 6 l-40 2 50 15 c99 29
240 74 260 83 58 26 482 171 575 196 281 78 453 101 795 110 127 3 231 7 232
8 5 4 166 -5 208 -13z m-80 -615 c83 -3 161 -8 175 -10 14 -3 41 -7 62 -10 62
-9 88 -26 88 -56 0 -35 -42 -68 -130 -103 -58 -23 -182 -58 -250 -71 -14 -2
-45 -9 -70 -14 -25 -6 -67 -13 -95 -17 -27 -3 -90 -12 -140 -20 -49 -8 -115
-17 -145 -20 -30 -3 -71 -7 -90 -10 -73 -10 -117 -14 -190 -20 -41 -3 -100 -7
-130 -10 -54 -5 -112 -9 -295 -21 -217 -14 -885 -30 -885 -21 0 4 15 10 33 16
17 5 127 39 242 76 264 84 456 141 565 170 92 23 266 65 292 69 18 3 44 8 58
11 63 13 69 14 325 50 17 3 86 7 155 11 69 4 126 7 127 8 2 2 131 -2 298 -8z
m438 -659 c93 -30 100 -75 25 -151 -111 -109 -253 -184 -448 -235 -89 -23
-216 -48 -285 -56 -27 -4 -57 -8 -65 -10 -8 -3 -40 -7 -70 -10 -30 -3 -66 -8
-80 -10 -14 -2 -54 -6 -90 -10 -36 -3 -85 -8 -110 -10 -133 -13 -257 -21 -430
-30 -52 -3 -144 -7 -205 -10 -127 -7 -501 -7 -590 0 -33 2 -103 7 -155 10 -52
4 -106 8 -120 9 -14 2 -63 7 -110 12 -47 4 -88 9 -92 10 -5 1 -13 2 -18 3 -23
2 48 72 102 101 53 28 158 58 633 181 131 34 422 97 525 114 19 3 46 7 60 10
14 3 39 7 55 9 17 2 50 7 75 11 25 4 56 8 70 10 14 2 43 6 65 9 38 6 86 11
185 21 25 3 70 7 100 10 87 9 163 14 330 21 85 4 156 7 157 8 2 1 101 1 220 0
166 -1 230 -5 266 -17z"/>
<path d="M939 10329 c-20 -29 -21 -34 -8 -57 14 -25 33 -35 389 -219 107 -55
242 -125 300 -155 58 -31 182 -95 275 -143 94 -48 235 -121 315 -163 80 -41
224 -115 320 -165 96 -49 270 -142 385 -205 332 -183 362 -199 501 -266 287
-141 473 -206 708 -246 108 -18 121 -19 143 -5 28 19 32 74 6 98 -17 14 -34
19 -123 32 -107 15 -214 45 -350 98 -90 35 -564 268 -800 394 -70 37 -153 80
-535 278 -82 43 -213 110 -290 150 -77 40 -207 107 -290 150 -82 43 -186 97
-230 120 -44 23 -183 95 -310 160 -126 65 -255 131 -285 147 -71 36 -93 36
-121 -3z"/>
<path d="M15197 7865 c-24 -23 -21 -70 5 -95 17 -15 36 -20 82 -21 34 -1 77
-2 96 -4 215 -15 795 -39 1250 -50 477 -12 1792 -5 1841 10 16 5 39 45 39 69
0 7 -9 22 -20 34 -20 21 -23 21 -258 15 -130 -4 -491 -6 -802 -6 -802 0 -1299
14 -2101 58 -100 6 -118 4 -132 -10z"/>
<path d="M4950 4272 c-36 -18 -333 -186 -360 -203 -14 -8 -59 -33 -201 -113
-531 -296 -869 -494 -879 -514 -14 -31 6 -73 41 -86 22 -7 55 8 250 119 204
116 253 144 344 195 17 9 129 73 250 142 121 68 310 175 420 237 110 63 208
120 218 129 24 21 21 64 -6 90 -28 27 -33 27 -77 4z"/>
<path d="M14514 3980 c-41 -16 -56 -76 -27 -102 10 -8 151 -96 313 -196 162
-99 507 -309 765 -467 259 -159 481 -294 495 -302 14 -8 39 -23 55 -33 17 -11
46 -29 65 -40 19 -11 85 -51 145 -88 144 -89 473 -290 507 -311 15 -9 109 -66
210 -127 101 -62 192 -114 204 -118 47 -14 88 60 55 101 -9 11 -110 77 -226
147 -115 70 -271 164 -345 210 -314 193 -508 311 -548 335 -24 14 -56 33 -70
42 -15 9 -169 103 -342 209 -173 105 -327 200 -342 211 -15 10 -29 19 -32 19
-2 0 -57 33 -123 74 -108 67 -282 173 -609 372 -67 41 -123 74 -125 73 -2 0
-14 -4 -25 -9z"/>
</g>
</svg>
